<svg width="32" height="32" viewBox="0 0 32 32" fill="none" xmlns="http://www.w3.org/2000/svg">
<path d="M15 17L16 4.5V3L17.5 2.5L18.5 4.5V12.5L28 14.5L29 24.5L26 30H17.5L4 16L4.5 14L8 13.5L12 17H15Z" fill="white" stroke="#FCFCFC"/>
<path d="M27.9958 14.9847L27.6338 14.8841L19 12.4858V4.35575C19 3.89162 18.8156 3.4465 18.4874 3.11831C18.1592 2.79012 17.7141 2.60575 17.25 2.60575C16.7859 2.60575 16.3407 2.79012 16.0126 3.11831C15.6844 3.4465 15.5 3.89162 15.5 4.35575V17.1057H11.763L10.1568 15.1429L10.1568 15.1428C9.50801 14.3502 8.58916 13.8253 7.57685 13.6691C6.56453 13.5129 5.5302 13.7363 4.67267 14.2965L4.18312 14.6163L4.57507 15.0503L17.5733 29.4409L17.7222 29.6057H17.9443H24.9338H25.2169L25.3626 29.363L27.9287 25.086L28 24.9672V24.8287V15.3659V14.9858L27.9979 14.9852L27.9979 14.9852L27.9958 14.9846L27.9958 14.9847ZM10.931 14.5097L10.931 14.5097L12.0869 15.9222L12.237 16.1056H12.4739H14H14.5V15.6056V4.35556C14.5 3.62622 14.7897 2.92674 15.3055 2.41102C15.8212 1.89529 16.5206 1.60556 17.25 1.60556C17.9793 1.60556 18.6788 1.89529 19.1945 2.41102C19.7103 2.92674 20 3.62621 20 4.35556V11.3457V11.7257L20.3662 11.8274L28.2665 14.022C28.2666 14.0221 28.2668 14.0221 28.2669 14.0221C28.4774 14.0812 28.6629 14.2073 28.7952 14.3814C28.9274 14.5554 28.9993 14.7677 29 14.9862C29 14.9865 29 14.9867 29 14.9869L29 24.9671C29 25.1483 28.9507 25.3262 28.8575 25.4816L28.8574 25.4816L25.7831 30.6057H17.2778L3.46943 15.3179C3.46943 15.3179 3.46942 15.3179 3.46942 15.3179C3.38052 15.2194 3.31209 15.1043 3.26812 14.9791C3.22414 14.854 3.2055 14.7214 3.21329 14.5889C3.22107 14.4565 3.25512 14.327 3.31345 14.2078C3.37178 14.0887 3.45323 13.9824 3.55306 13.895C4.07288 13.4402 4.67889 13.0946 5.33501 12.8787C5.99114 12.6628 6.68398 12.5811 7.37232 12.6385C8.06067 12.6958 8.73044 12.891 9.3418 13.2125C9.95316 13.5339 10.4936 13.9751 10.931 14.5097Z" fill="white" stroke="black"/>
</svg>
