<svg width="29" height="29" viewBox="0 0 29 29" fill="none" xmlns="http://www.w3.org/2000/svg">
<rect x="14" y="25" width="1.63226" height="4" fill="#FEFEFE"/>
<rect x="25" y="15.6323" width="1.63226" height="4" transform="rotate(-90 25 15.6323)" fill="#FEFEFE"/>
<rect x="3.9682" y="5.44116" width="1.63226" height="4" transform="rotate(-44.9612 3.9682 5.44116)" fill="#FEFEFE"/>
<rect x="14.1746" y="0.991821" width="1.63226" height="4" fill="#FEFEFE"/>
<rect x="5.12323" y="25.2715" width="1.63226" height="4" transform="rotate(-135.04 5.12323 25.2715)" fill="#FEFEFE"/>
<rect x="0.990723" y="15.808" width="1.63226" height="4" transform="rotate(-90 0.990723 15.808)" fill="#FEFEFE"/>
<rect x="25.9814" y="23.8304" width="1.63226" height="4" transform="rotate(135.04 25.9814 23.8304)" fill="#FEFEFE"/>
<rect x="24.8265" y="3.99994" width="1.63226" height="4" transform="rotate(44.96 24.8265 3.99994)" fill="#FEFEFE"/>
<path d="M24 15C24 19.9706 19.9706 24 15 24C10.0294 24 6 19.9706 6 15C6 10.0294 10.0294 6 15 6C17.5552 6 19.8618 7.06486 21.5 8.77503C22.2526 9.56071 22.8642 10.4826 23.2941 11.5C23.7487 12.5759 24 13.7586 24 15Z" fill="#FEFEFE"/>
</svg>
