<svg width="17" height="22" viewBox="0 0 17 22" fill="none" xmlns="http://www.w3.org/2000/svg">
<path d="M8.5 0.0158081C6.24648 0.0184828 4.08602 0.920324 2.49253 2.5235C0.899053 4.12668 0.00266759 6.30029 9.04313e-06 8.56753C-0.00269001 10.4203 0.598857 12.2228 1.71237 13.6986C1.71237 13.6986 1.94419 14.0056 1.98205 14.05L8.5 21.7838L15.021 14.0461C15.055 14.0049 15.2876 13.6986 15.2876 13.6986L15.2884 13.6962C16.4014 12.2211 17.0026 10.4195 17 8.56753C16.9973 6.30029 16.1009 4.12668 14.5075 2.5235C12.914 0.920324 10.7535 0.0184828 8.5 0.0158081ZM8.5 11.6772C7.88868 11.6772 7.29108 11.4949 6.78278 11.1532C6.27449 10.8115 5.87832 10.3258 5.64438 9.75757C5.41043 9.18934 5.34922 8.56408 5.46849 7.96085C5.58775 7.35763 5.88213 6.80353 6.3144 6.36863C6.74667 5.93372 7.29742 5.63755 7.89699 5.51756C8.49657 5.39757 9.11805 5.45916 9.68284 5.69452C10.2476 5.92989 10.7304 6.32847 11.07 6.83986C11.4096 7.35125 11.5909 7.95248 11.5909 8.56753C11.5899 9.39196 11.2639 10.1823 10.6845 10.7653C10.105 11.3483 9.31945 11.6762 8.5 11.6772Z" fill="black"/>
</svg>
