<svg width="17" height="22" viewBox="0 0 17 22" fill="none" xmlns="http://www.w3.org/2000/svg">
<path d="M8.5 0.015625C6.24648 0.0182997 4.08602 0.920141 2.49253 2.52332C0.899053 4.1265 0.00266759 6.30011 9.04313e-06 8.56734C-0.00269001 10.4201 0.598857 12.2226 1.71237 13.6984C1.71237 13.6984 1.94419 14.0055 1.98205 14.0498L8.5 21.7836L15.021 14.0459C15.055 14.0047 15.2876 13.6984 15.2876 13.6984L15.2884 13.696C16.4014 12.221 17.0026 10.4193 17 8.56734C16.9973 6.30011 16.1009 4.1265 14.5075 2.52332C12.914 0.920141 10.7535 0.0182997 8.5 0.015625ZM8.5 11.6771C7.88868 11.6771 7.29108 11.4947 6.78278 11.153C6.27449 10.8113 5.87832 10.3256 5.64438 9.75738C5.41043 9.18916 5.34922 8.5639 5.46849 7.96067C5.58775 7.35744 5.88213 6.80335 6.3144 6.36844C6.74667 5.93354 7.29742 5.63737 7.89699 5.51738C8.49657 5.39739 9.11805 5.45897 9.68284 5.69434C10.2476 5.92971 10.7304 6.32829 11.07 6.83968C11.4096 7.35107 11.5909 7.9523 11.5909 8.56734C11.5899 9.39178 11.2639 10.1821 10.6845 10.7651C10.105 11.3481 9.31945 11.676 8.5 11.6771Z" fill="#D3D3D3"/>
</svg>
