<svg width="21" height="25" viewBox="0 0 21 25" fill="none" xmlns="http://www.w3.org/2000/svg">
<path d="M19.9964 20.2857C17.7993 20.2595 15.6692 19.4813 13.9244 18.0676C12.1796 16.6538 10.9137 14.6803 10.3158 12.4419C9.71798 10.2036 9.82028 7.8205 10.6074 5.64877C11.3946 3.47705 12.8244 1.63325 14.6831 0.392857C13.7439 0.134381 12.7777 0.00238588 11.8072 0C8.67576 0 5.67254 1.31696 3.45826 3.66116C1.24397 6.00537 0 9.18479 0 12.5C0 15.8152 1.24397 18.9946 3.45826 21.3388C5.67254 23.683 8.67576 25 11.8072 25C13.5812 24.9983 15.3314 24.5679 16.9245 23.7417C18.5176 22.9154 19.9115 21.7151 21 20.2321C20.6665 20.268 20.3316 20.2859 19.9964 20.2857Z" fill="#D4D4D4"/>
</svg>
