<svg width="30" height="30" viewBox="0 0 30 30" fill="none" xmlns="http://www.w3.org/2000/svg">
<g clip-path="url(#clip0_91_138)">
<path d="M15 5.34997C15.221 5.34997 15.433 5.26217 15.5893 5.10589C15.7456 4.94961 15.8334 4.73765 15.8334 4.51663V1.59163C15.8334 1.37062 15.7456 1.15866 15.5893 1.00238C15.433 0.846098 15.221 0.758301 15 0.758301C14.779 0.758301 14.567 0.846098 14.4108 1.00238C14.2545 1.15866 14.1667 1.37062 14.1667 1.59163V4.51663C14.1667 4.73765 14.2545 4.94961 14.4108 5.10589C14.567 5.26217 14.779 5.34997 15 5.34997Z" fill="#D4D4D4"/>
<path d="M15 24.6499C14.779 24.6499 14.567 24.7377 14.4108 24.894C14.2545 25.0503 14.1667 25.2622 14.1667 25.4832V28.4082C14.1667 28.6292 14.2545 28.8412 14.4108 28.9975C14.567 29.1538 14.779 29.2416 15 29.2416C15.221 29.2416 15.433 29.1538 15.5893 28.9975C15.7456 28.8412 15.8334 28.6292 15.8334 28.4082V25.4832C15.8334 25.2622 15.7456 25.0503 15.5893 24.894C15.433 24.7377 15.221 24.6499 15 24.6499Z" fill="#D4D4D4"/>
<path d="M7.00002 8.17496C7.15944 8.31148 7.3645 8.38282 7.57423 8.37472C7.78396 8.36662 7.98291 8.27967 8.13132 8.13126C8.27973 7.98285 8.36668 7.7839 8.37478 7.57417C8.38288 7.36444 8.31154 7.15938 8.17502 6.99996L6.10835 4.93329C5.94893 4.79677 5.74387 4.72543 5.53414 4.73353C5.32441 4.74163 5.12546 4.82858 4.97705 4.97699C4.82864 5.1254 4.74169 5.32435 4.73359 5.53408C4.72549 5.74381 4.79683 5.94887 4.93335 6.10829L7.00002 8.17496Z" fill="#D4D4D4"/>
<path d="M23 21.8249C22.8406 21.6884 22.6355 21.617 22.4258 21.6251C22.2161 21.6332 22.0171 21.7202 21.8687 21.8686C21.7203 22.017 21.6334 22.216 21.6253 22.4257C21.6172 22.6354 21.6885 22.8405 21.825 22.9999L23.8917 25.0666C24.0511 25.2031 24.2562 25.2744 24.4659 25.2663C24.6756 25.2582 24.8746 25.1713 25.023 25.0229C25.1714 24.8744 25.2583 24.6755 25.2664 24.4658C25.2745 24.256 25.2032 24.051 25.0667 23.8916L23 21.8249Z" fill="#D4D4D4"/>
<path d="M5.35003 15.0001C5.35003 14.7791 5.26223 14.5671 5.10595 14.4108C4.94967 14.2545 4.73771 14.1667 4.5167 14.1667H1.5917C1.37068 14.1667 1.15872 14.2545 1.00244 14.4108C0.846159 14.5671 0.758362 14.7791 0.758362 15.0001C0.758362 15.2211 0.846159 15.4331 1.00244 15.5893C1.15872 15.7456 1.37068 15.8334 1.5917 15.8334H4.5167C4.73771 15.8334 4.94967 15.7456 5.10595 15.5893C5.26223 15.4331 5.35003 15.2211 5.35003 15.0001Z" fill="#D4D4D4"/>
<path d="M28.4084 14.1667H25.4834C25.2623 14.1667 25.0504 14.2545 24.8941 14.4108C24.7378 14.5671 24.65 14.7791 24.65 15.0001C24.65 15.2211 24.7378 15.4331 24.8941 15.5893C25.0504 15.7456 25.2623 15.8334 25.4834 15.8334H28.4084C28.6294 15.8334 28.8413 15.7456 28.9976 15.5893C29.1539 15.4331 29.2417 15.2211 29.2417 15.0001C29.2417 14.7791 29.1539 14.5671 28.9976 14.4108C28.8413 14.2545 28.6294 14.1667 28.4084 14.1667Z" fill="#D4D4D4"/>
<path d="M7.00002 21.8249L4.93335 23.8916C4.79683 24.051 4.72549 24.256 4.73359 24.4658C4.74169 24.6755 4.82864 24.8744 4.97705 25.0229C5.12546 25.1713 5.32441 25.2582 5.53414 25.2663C5.74387 25.2744 5.94893 25.2031 6.10835 25.0666L8.17502 22.9999C8.31154 22.8405 8.38288 22.6354 8.37478 22.4257C8.36668 22.216 8.27973 22.017 8.13132 21.8686C7.98291 21.7202 7.78396 21.6332 7.57423 21.6251C7.3645 21.617 7.15944 21.6884 7.00002 21.8249Z" fill="#D4D4D4"/>
<path d="M23 8.17496L25.0667 6.10829C25.2032 5.94887 25.2745 5.74381 25.2664 5.53408C25.2583 5.32435 25.1714 5.1254 25.023 4.97699C24.8746 4.82858 24.6756 4.74163 24.4659 4.73353C24.2562 4.72543 24.0511 4.79677 23.8917 4.93329L21.825 6.99996C21.6885 7.15937 21.6172 7.36444 21.6253 7.57417C21.6334 7.7839 21.7203 7.98285 21.8687 8.13126C22.0171 8.27967 22.2161 8.36662 22.4258 8.37472C22.6355 8.38282 22.8406 8.31148 23 8.17496Z" fill="#D4D4D4"/>

<path d="M15 23.3334C19.6024 23.3334 23.3334 19.6025 23.3334 15.0001C23.3334 10.3977 19.6024 6.66675 15 6.66675C10.3976 6.66675 6.66669 10.3977 6.66669 15.0001C6.66669 19.6025 10.3976 23.3334 15 23.3334Z" fill="#D4D4D4"/>
</g>
</svg>
